<svg width="60" height="60" viewBox="0 0 60 60" fill="none" xmlns="http://www.w3.org/2000/svg">
<path d="M30.1252 27.8233C30.0961 27.7862 30.059 27.7561 30.0166 27.7355C29.9743 27.7148 29.9277 27.7041 29.8806 27.7041C29.8334 27.7041 29.7869 27.7148 29.7445 27.7355C29.7021 27.7561 29.665 27.7862 29.636 27.8233L25.2871 33.3254C25.2512 33.3712 25.229 33.4261 25.2229 33.4839C25.2168 33.5418 25.2271 33.6001 25.2526 33.6524C25.2781 33.7046 25.3178 33.7487 25.3672 33.7794C25.4166 33.8102 25.4736 33.8264 25.5317 33.8263H28.4012V43.2385C28.4012 43.4093 28.541 43.5491 28.7118 43.5491H31.0416C31.2124 43.5491 31.3522 43.4093 31.3522 43.2385V33.8302H34.2294C34.4896 33.8302 34.6333 33.5312 34.4741 33.3293L30.1252 27.8233Z" fill="#212121"/>
<path d="M41.506 24.2388C39.7276 19.5483 35.1962 16.2129 29.8883 16.2129C24.5803 16.2129 20.049 19.5444 18.2706 24.235C14.9429 25.1086 12.485 28.1412 12.485 31.7445C12.485 36.0351 15.9603 39.5104 20.247 39.5104H21.804C21.9749 39.5104 22.1147 39.3706 22.1147 39.1997V36.87C22.1147 36.6991 21.9749 36.5593 21.804 36.5593H20.247C18.9385 36.5593 17.7076 36.039 16.7912 35.0955C15.8787 34.1558 15.3934 32.89 15.4361 31.5776C15.471 30.5525 15.8205 29.5895 16.4534 28.778C17.1018 27.9509 18.0104 27.3491 19.02 27.0811L20.4916 26.6967L21.0313 25.2756C21.3653 24.3903 21.8312 23.5632 22.4175 22.8138C22.9964 22.071 23.682 21.4181 24.4522 20.8762C26.0481 19.7541 27.9274 19.16 29.8883 19.16C31.8491 19.16 33.7285 19.7541 35.3244 20.8762C36.0971 21.4199 36.7804 22.0722 37.359 22.8138C37.9453 23.5632 38.4113 24.3942 38.7452 25.2756L39.281 26.6928L40.7488 27.0811C42.8533 27.648 44.325 29.5623 44.325 31.7445C44.325 33.0298 43.8241 34.2412 42.9155 35.1498C42.4699 35.598 41.9398 35.9534 41.3559 36.1953C40.7721 36.4373 40.146 36.561 39.514 36.5593H37.957C37.7861 36.5593 37.6463 36.6991 37.6463 36.87V39.1997C37.6463 39.3706 37.7861 39.5104 37.957 39.5104H39.514C43.8008 39.5104 47.276 36.0351 47.276 31.7445C47.276 28.1451 44.8259 25.1164 41.506 24.2388Z" fill="#0F4068"/>
</svg>
