<svg width="38" height="38" viewBox="0 0 38 38" fill="none" xmlns="http://www.w3.org/2000/svg">
<path fill-rule="evenodd" clip-rule="evenodd" d="M10 19C10 16.6131 10.9482 14.3239 12.636 12.636C14.3239 10.9482 16.6131 10 19 10C21.3869 10 23.6761 10.9482 25.364 12.636C27.0518 14.3239 28 16.6131 28 19C28 21.3869 27.0518 23.6761 25.364 25.364C23.6761 27.0518 21.3869 28 19 28C16.6131 28 14.3239 27.0518 12.636 25.364C10.9482 23.6761 10 21.3869 10 19V19ZM18.4864 22.852L23.668 16.3744L22.732 15.6256L18.3136 21.1468L15.184 18.5392L14.416 19.4608L18.4864 22.8532V22.852Z" fill="#E11F30"/>
</svg>
