<svg width="90" height="90" viewBox="0 0 90 90" fill="none" xmlns="http://www.w3.org/2000/svg">
<path d="M46.2354 11.7884L66.0496 56.2619C66.1926 56.5846 66.2349 56.943 66.1707 57.2902C66.1066 57.6373 65.9391 57.957 65.6903 58.2073L65.6035 58.2941C65.3207 58.5379 64.9675 58.685 64.5952 58.714C64.223 58.7429 63.8512 58.6523 63.5341 58.4552L44.6245 46.6336L25.7521 58.4923C25.4344 58.6843 25.0639 58.7703 24.6941 58.7381C24.3242 58.7059 23.9742 58.5571 23.6944 58.3131C23.4146 58.0692 23.2195 57.7427 23.1372 57.3807C23.055 57.0187 23.0898 56.64 23.2366 56.299L43.0136 11.7884C43.1487 11.473 43.3733 11.2043 43.6596 11.0154C43.946 10.8265 44.2815 10.7259 44.6245 10.7259C44.9676 10.7259 45.303 10.8265 45.5894 11.0154C45.8758 11.2043 46.1004 11.473 46.2354 11.7884V11.7884Z" fill="white"/>
</svg>
