<svg width="32" height="27" viewBox="0 0 32 27" fill="none" xmlns="http://www.w3.org/2000/svg">
<path d="M10.2641 10.2641C10.4333 10.095 10.6627 10 10.902 10C11.1412 10 11.3706 10.095 11.5398 10.2641L16.0054 14.7298L20.4711 10.2641C20.6413 10.0998 20.8691 10.0089 21.1057 10.0109C21.3422 10.013 21.5685 10.1079 21.7358 10.2751C21.903 10.4424 21.9979 10.6687 22 10.9052C22.002 11.1417 21.9111 11.3696 21.7468 11.5398L16.6433 16.6433C16.4741 16.8124 16.2447 16.9074 16.0054 16.9074C15.7662 16.9074 15.5368 16.8124 15.3676 16.6433L10.2641 11.5398C10.095 11.3706 10 11.1412 10 10.902C10 10.6627 10.095 10.4333 10.2641 10.2641V10.2641Z" fill="#0F4068"/>
</svg>
