<svg width="100" height="100" viewBox="0 0 100 100" fill="none" xmlns="http://www.w3.org/2000/svg">
<path d="M50 15C59.2826 15 68.185 18.6875 74.7487 25.2513C81.3125 31.815 85 40.7174 85 50C85 59.2826 81.3125 68.185 74.7487 74.7487C68.185 81.3125 59.2826 85 50 85C40.7174 85 31.815 81.3125 25.2513 74.7487C18.6875 68.185 15 59.2826 15 50C15 40.7174 18.6875 31.815 25.2513 25.2513C31.815 18.6875 40.7174 15 50 15V15ZM45.64 56.905L37.865 49.125C37.5863 48.8463 37.2554 48.6252 36.8912 48.4743C36.527 48.3235 36.1367 48.2458 35.7425 48.2458C35.3483 48.2458 34.958 48.3235 34.5938 48.4743C34.2296 48.6252 33.8987 48.8463 33.62 49.125C33.0571 49.6879 32.7408 50.4514 32.7408 51.2475C32.7408 52.0436 33.0571 52.8071 33.62 53.37L43.52 63.27C43.7979 63.5501 44.1286 63.7725 44.4929 63.9242C44.8572 64.0759 45.2479 64.154 45.6425 64.154C46.0371 64.154 46.4278 64.0759 46.7921 63.9242C47.1564 63.7725 47.4871 63.5501 47.765 63.27L68.265 42.765C68.5475 42.4874 68.7722 42.1567 68.9261 41.7918C69.0801 41.427 69.1604 41.0352 69.1622 40.6392C69.164 40.2432 69.0875 39.8508 68.9369 39.4845C68.7863 39.1182 68.5647 38.7854 68.2848 38.5052C68.005 38.225 67.6724 38.003 67.3063 37.852C66.9402 37.701 66.5478 37.6239 66.1518 37.6253C65.7558 37.6267 65.364 37.7064 64.999 37.86C64.6339 38.0136 64.3029 38.2379 64.025 38.52L45.64 56.905Z" fill="#0F4068"/>
</svg>
