<svg width="38" height="40" viewBox="0 0 38 40" fill="none" xmlns="http://www.w3.org/2000/svg">
<path d="M27.0283 25.9103C26.5837 24.8159 25.9385 23.8218 25.1286 22.9834C24.3213 22.1426 23.3648 21.4722 22.3122 21.0093C22.3028 21.0044 22.2934 21.002 22.2839 20.9971C23.7522 19.8949 24.7068 18.0996 24.7068 16.0741C24.7068 12.7187 22.0907 10 18.8618 10C15.6329 10 13.0168 12.7187 13.0168 16.0741C13.0168 18.0996 13.9713 19.8949 15.4397 20.9995C15.4302 21.0044 15.4208 21.0069 15.4114 21.0118C14.3555 21.4747 13.4081 22.1384 12.5949 22.9859C11.7859 23.8249 11.1408 24.8188 10.6953 25.9127C10.2577 26.9836 10.0217 28.1318 10.0001 29.2951C9.99943 29.3212 10.0038 29.3472 10.013 29.3716C10.0222 29.3959 10.036 29.4181 10.0536 29.4368C10.0712 29.4555 10.0922 29.4704 10.1153 29.4806C10.1385 29.4907 10.1634 29.4959 10.1886 29.4959H11.6027C11.7064 29.4959 11.7889 29.4102 11.7913 29.3049C11.8384 27.4141 12.569 25.6433 13.8606 24.3011C15.1969 22.9124 16.9716 22.1482 18.8618 22.1482C20.752 22.1482 22.5267 22.9124 23.863 24.3011C25.1546 25.6433 25.8852 27.4141 25.9323 29.3049C25.9347 29.4127 26.0172 29.4959 26.1209 29.4959H27.535C27.5601 29.4959 27.585 29.4907 27.6082 29.4806C27.6314 29.4704 27.6524 29.4555 27.67 29.4368C27.6876 29.4181 27.7013 29.3959 27.7105 29.3716C27.7197 29.3472 27.7241 29.3212 27.7235 29.2951C27.7 28.1244 27.4666 26.9855 27.0283 25.9103V25.9103ZM18.8618 20.2868C17.78 20.2868 16.7618 19.8484 15.9959 19.0524C15.2299 18.2564 14.808 17.1983 14.808 16.0741C14.808 14.9499 15.2299 13.8918 15.9959 13.0958C16.7618 12.2998 17.78 11.8614 18.8618 11.8614C19.9436 11.8614 20.9617 12.2998 21.7277 13.0958C22.4937 13.8918 22.9156 14.9499 22.9156 16.0741C22.9156 17.1983 22.4937 18.2564 21.7277 19.0524C20.9617 19.8484 19.9436 20.2868 18.8618 20.2868Z" fill="#0F4068"/>
</svg>
