<svg width="38" height="44" viewBox="0 0 38 44" fill="none" xmlns="http://www.w3.org/2000/svg">
<g clip-path="url(#clip0_273_6672)">
<path d="M20.1109 33.4C22.5156 30.3906 28 23.0969 28 19C28 14.0312 23.9688 10 19 10C14.0312 10 10 14.0312 10 19C10 23.0969 15.4844 30.3906 17.8891 33.4C18.4656 34.1172 19.5344 34.1172 20.1109 33.4V33.4ZM19 22C17.3453 22 16 20.6547 16 19C16 17.3453 17.3453 16 19 16C20.6547 16 22 17.3453 22 19C22 20.6547 20.6547 22 19 22Z" fill="#0F4068"/>
</g>
<defs>
<clipPath id="clip0_273_6672">
<rect width="18" height="24" fill="white" transform="translate(10 10)"/>
</clipPath>
</defs>
</svg>
