<svg width="44" height="44" viewBox="0 0 44 44" fill="none" xmlns="http://www.w3.org/2000/svg">
<path d="M28.5 14C29.33 14 30 14.67 30 15.5V28.5C30 29.33 29.33 30 28.5 30C27.67 30 27 29.33 27 28.5V15.5C27 14.67 27.67 14 28.5 14ZM16.5 24C17.33 24 18 24.67 18 25.5V28.5C18 29.33 17.33 30 16.5 30C15.67 30 15 29.33 15 28.5V25.5C15 24.67 15.67 24 16.5 24ZM22.5 19C23.33 19 24 19.67 24 20.5V28.5C24 29.33 23.33 30 22.5 30C21.67 30 21 29.33 21 28.5V20.5C21 19.67 21.67 19 22.5 19Z" fill="#313634"/>
</svg>
