<svg width="38" height="38" viewBox="0 0 38 38" fill="none" xmlns="http://www.w3.org/2000/svg">
<path d="M17.1208 24.8965H20.2591C20.7631 24.8965 21.1727 24.4781 21.1727 23.9654C21.1727 23.4527 20.7631 23.0343 20.2591 23.0343H17.1208C16.6167 23.0343 16.2071 23.4527 16.2071 23.9654C16.2071 24.4781 16.6167 24.8965 17.1208 24.8965ZM15.276 14.9651C14.5352 14.9651 13.8248 15.2594 13.3009 15.7833C12.7771 16.3071 12.4828 17.0175 12.4828 17.7583C12.4828 18.4991 12.7771 19.2096 13.3009 19.7334C13.8248 20.2572 14.5352 20.5515 15.276 20.5515H22.1038C22.8446 20.5515 23.555 20.2572 24.0789 19.7334C24.6027 19.2096 24.897 18.4991 24.897 17.7583C24.897 17.0175 24.6027 16.3071 24.0789 15.7833C23.555 15.2594 22.8446 14.9651 22.1038 14.9651H15.276ZM15.7416 16.2066C16.1698 16.2066 16.5174 16.5542 16.5174 16.9824V18.5342C16.5174 18.74 16.4357 18.9373 16.2902 19.0828C16.1447 19.2284 15.9473 19.3101 15.7416 19.3101C15.5358 19.3101 15.3384 19.2284 15.1929 19.0828C15.0474 18.9373 14.9657 18.74 14.9657 18.5342V16.9824C14.9657 16.5542 15.3133 16.2066 15.7416 16.2066ZM20.8624 16.9824C20.8624 16.7767 20.9441 16.5793 21.0896 16.4338C21.2351 16.2883 21.4325 16.2066 21.6383 16.2066C21.844 16.2066 22.0414 16.2883 22.1869 16.4338C22.3324 16.5793 22.4141 16.7767 22.4141 16.9824V18.5342C22.4141 18.74 22.3324 18.9373 22.1869 19.0828C22.0414 19.2284 21.844 19.3101 21.6383 19.3101C21.4325 19.3101 21.2351 19.2284 21.0896 19.0828C20.9441 18.9373 20.8624 18.74 20.8624 18.5342V16.9824Z" fill="#313634"/>
<path d="M11.2414 11.8089C11.4485 11.7357 11.623 11.5916 11.7341 11.4022C11.8453 11.2127 11.8859 10.9901 11.8487 10.7736C11.8116 10.5571 11.6991 10.3608 11.5312 10.2192C11.3633 10.0776 11.1507 10 10.9311 10C10.7114 10 10.4989 10.0776 10.3309 10.2192C10.163 10.3608 10.0506 10.5571 10.0134 10.7736C9.97627 10.9901 10.0169 11.2127 10.128 11.4022C10.2391 11.5916 10.4136 11.7357 10.6207 11.8089V16.3742C10.4324 16.4829 10.2759 16.6392 10.1669 16.8275C10.058 17.0157 10.0004 17.2293 10 17.4467V21.7942C10 22.251 10.2501 22.652 10.6207 22.8674V23.6861C10.6203 24.2527 10.7316 24.8139 10.9483 25.3374C11.1649 25.861 11.4826 26.3367 11.8833 26.7374C12.284 27.1381 12.7597 27.4558 13.2833 27.6725C13.8068 27.8891 14.368 28.0004 14.9346 28H22.4452C23.0113 28.0006 23.572 27.8896 24.0953 27.6734C24.6185 27.4572 25.094 27.14 25.4946 26.74C25.8953 26.3399 26.2131 25.8649 26.4301 25.3419C26.647 24.819 26.7588 24.2584 26.7591 23.6923V22.8295C27.1296 22.6141 27.3798 22.2125 27.3798 21.7557V17.4045C27.3798 16.9477 27.1296 16.5461 26.7591 16.3307V11.8728C26.9748 11.7993 27.1574 11.6516 27.2744 11.456C27.3914 11.2604 27.4351 11.0297 27.3979 10.8048C27.3606 10.58 27.2448 10.3757 27.0709 10.2283C26.8971 10.0809 26.6766 10 26.4487 10C26.2208 10 26.0003 10.0809 25.8265 10.2283C25.6527 10.3757 25.5368 10.58 25.4996 10.8048C25.4623 11.0297 25.5061 11.2604 25.6231 11.456C25.74 11.6516 25.9227 11.7993 26.1384 11.8728V13.9807C25.7518 13.3347 25.2044 12.7999 24.5495 12.4285C23.8946 12.0571 23.1546 11.8618 22.4017 11.8616H21.7407C21.7903 11.7212 21.8056 11.5708 21.7851 11.4232C21.7646 11.2757 21.709 11.1352 21.6229 11.0135C21.5369 10.8919 21.4229 10.7927 21.2905 10.7243C21.1582 10.6558 21.0114 10.6201 20.8624 10.6202H16.5174C16.3684 10.6201 16.2216 10.6558 16.0892 10.7243C15.9569 10.7927 15.8429 10.8919 15.7569 11.0135C15.6708 11.1352 15.6152 11.2757 15.5947 11.4232C15.5742 11.5708 15.5895 11.7212 15.6391 11.8616H14.9843C13.3953 11.8616 12.0049 12.7114 11.2414 13.9807V11.8083V11.8089ZM11.8621 16.2252C11.8621 15.3972 12.1911 14.603 12.7766 14.0175C13.3621 13.432 14.1562 13.103 14.9843 13.103H22.4017C23.2288 13.1044 24.0215 13.4339 24.6058 14.0193C25.19 14.6047 25.518 15.3981 25.5177 16.2252V23.6923C25.5174 24.0954 25.4377 24.4945 25.2832 24.8669C25.1286 25.2392 24.9022 25.5774 24.6168 25.8621C24.3315 26.1469 23.9928 26.3726 23.6202 26.5265C23.2476 26.6803 22.8483 26.7592 22.4452 26.7586H14.9346C14.531 26.759 14.1313 26.6798 13.7583 26.5255C13.3854 26.3713 13.0465 26.145 12.7611 25.8596C12.4757 25.5742 12.2494 25.2353 12.0952 24.8624C11.9409 24.4894 11.8617 24.0897 11.8621 23.6861V16.2252V16.2252Z" fill="#313634"/>
</svg>
