<svg width="44" height="44" viewBox="0 0 44 44" fill="none" xmlns="http://www.w3.org/2000/svg">
<g clip-path="url(#clip0_273_8000)">
<path d="M15 28.8568C15 29.4889 15.5107 29.9996 16.1428 29.9996C16.7749 29.9996 17.2856 29.4889 17.2856 28.8568H15ZM16.1428 15.1432L17.0213 14.4111C16.7142 14.0432 16.2071 13.904 15.7535 14.0682C15.3 14.2325 15 14.6611 15 15.1432H16.1428ZM27.5708 28.8568L26.6923 29.5889C26.9994 29.9568 27.5065 30.096 27.9601 29.9318C28.4136 29.7675 28.7136 29.3389 28.7136 28.8568H27.5708ZM28.7136 15.1432C28.7136 14.5111 28.2029 14.0004 27.5708 14.0004C26.9387 14.0004 26.428 14.5111 26.428 15.1432H28.7136ZM17.2856 28.8568V15.1432H15V28.8568H17.2856ZM15.2643 15.8753L26.6923 29.5889L28.4493 28.1247L17.0213 14.4111L15.2643 15.8753V15.8753ZM28.7136 28.8568V15.1432H26.428V28.8568H28.7136Z" fill="#0F4068"/>
</g>
<defs>
<clipPath id="clip0_273_8000">
<rect width="20" height="20" fill="white" transform="matrix(-1 0 0 1 32 12)"/>
</clipPath>
</defs>
</svg>
