<svg width="48" height="48" viewBox="0 0 48 48" fill="none" xmlns="http://www.w3.org/2000/svg">
<path d="M24 29.25C22.6076 29.25 21.2723 28.6969 20.2877 27.7123C19.3031 26.7277 18.75 25.3924 18.75 24C18.75 22.6076 19.3031 21.2723 20.2877 20.2877C21.2723 19.3031 22.6076 18.75 24 18.75C25.3924 18.75 26.7277 19.3031 27.7123 20.2877C28.6969 21.2723 29.25 22.6076 29.25 24C29.25 25.3924 28.6969 26.7277 27.7123 27.7123C26.7277 28.6969 25.3924 29.25 24 29.25ZM24 31C25.8565 31 27.637 30.2625 28.9497 28.9497C30.2625 27.637 31 25.8565 31 24C31 22.1435 30.2625 20.363 28.9497 19.0503C27.637 17.7375 25.8565 17 24 17C22.1435 17 20.363 17.7375 19.0503 19.0503C17.7375 20.363 17 22.1435 17 24C17 25.8565 17.7375 27.637 19.0503 28.9497C20.363 30.2625 22.1435 31 24 31V31ZM24.875 14.375C24.875 14.6071 24.7828 14.8296 24.6187 14.9937C24.4546 15.1578 24.2321 15.25 24 15.25C23.7679 15.25 23.5454 15.1578 23.3813 14.9937C23.2172 14.8296 23.125 14.6071 23.125 14.375C23.125 14.1429 23.2172 13.9204 23.3813 13.7563C23.5454 13.5922 23.7679 13.5 24 13.5C24.2321 13.5 24.4546 13.5922 24.6187 13.7563C24.7828 13.9204 24.875 14.1429 24.875 14.375ZM24.875 33.625C24.875 33.8571 24.7828 34.0796 24.6187 34.2437C24.4546 34.4078 24.2321 34.5 24 34.5C23.7679 34.5 23.5454 34.4078 23.3813 34.2437C23.2172 34.0796 23.125 33.8571 23.125 33.625C23.125 33.3929 23.2172 33.1704 23.3813 33.0063C23.5454 32.8422 23.7679 32.75 24 32.75C24.2321 32.75 24.4546 32.8422 24.6187 33.0063C24.7828 33.1704 24.875 33.3929 24.875 33.625ZM33.625 24.875C33.3929 24.875 33.1704 24.7828 33.0063 24.6187C32.8422 24.4546 32.75 24.2321 32.75 24C32.75 23.7679 32.8422 23.5454 33.0063 23.3813C33.1704 23.2172 33.3929 23.125 33.625 23.125C33.8571 23.125 34.0796 23.2172 34.2437 23.3813C34.4078 23.5454 34.5 23.7679 34.5 24C34.5 24.2321 34.4078 24.4546 34.2437 24.6187C34.0796 24.7828 33.8571 24.875 33.625 24.875ZM14.375 24.875C14.1429 24.875 13.9204 24.7828 13.7563 24.6187C13.5922 24.4546 13.5 24.2321 13.5 24C13.5 23.7679 13.5922 23.5454 13.7563 23.3813C13.9204 23.2172 14.1429 23.125 14.375 23.125C14.6071 23.125 14.8296 23.2172 14.9937 23.3813C15.1578 23.5454 15.25 23.7679 15.25 24C15.25 24.2321 15.1578 24.4546 14.9937 24.6187C14.8296 24.7828 14.6071 24.875 14.375 24.875ZM31.4253 17.812C31.3445 17.8956 31.248 17.9622 31.1412 18.0081C31.0345 18.0539 30.9197 18.0781 30.8035 18.0791C30.6873 18.0801 30.5721 18.058 30.4645 18.014C30.357 17.97 30.2593 17.905 30.1772 17.8228C30.095 17.7407 30.03 17.643 29.986 17.5355C29.942 17.4279 29.9199 17.3127 29.9209 17.1965C29.9219 17.0803 29.9461 16.9655 29.9919 16.8588C30.0378 16.752 30.1044 16.6555 30.188 16.5747C30.353 16.4154 30.5741 16.3272 30.8035 16.3292C31.0329 16.3312 31.2524 16.4232 31.4146 16.5854C31.5768 16.7476 31.6688 16.9671 31.6708 17.1965C31.6728 17.4259 31.5846 17.647 31.4253 17.812ZM17.812 31.4253C17.7313 31.5088 17.6347 31.5755 17.528 31.6213C17.4212 31.6672 17.3064 31.6913 17.1902 31.6923C17.074 31.6934 16.9588 31.6712 16.8513 31.6272C16.7438 31.5832 16.6461 31.5183 16.5639 31.4361C16.4817 31.3539 16.4168 31.2562 16.3728 31.1487C16.3288 31.0412 16.3066 30.926 16.3077 30.8098C16.3087 30.6936 16.3328 30.5788 16.3787 30.472C16.4245 30.3653 16.4912 30.2687 16.5747 30.188C16.7398 30.0286 16.9608 29.9404 17.1902 29.9424C17.4196 29.9444 17.6391 30.0364 17.8013 30.1987C17.9636 30.3609 18.0556 30.5804 18.0576 30.8098C18.0596 31.0392 17.9714 31.2602 17.812 31.4253V31.4253ZM30.188 31.4253C30.1044 31.3445 30.0378 31.248 29.9919 31.1412C29.9461 31.0345 29.9219 30.9197 29.9209 30.8035C29.9199 30.6873 29.942 30.5721 29.986 30.4645C30.03 30.357 30.095 30.2593 30.1772 30.1772C30.2593 30.095 30.357 30.03 30.4645 29.986C30.5721 29.942 30.6873 29.9199 30.8035 29.9209C30.9197 29.9219 31.0345 29.9461 31.1412 29.9919C31.248 30.0378 31.3445 30.1044 31.4253 30.188C31.5846 30.353 31.6728 30.5741 31.6708 30.8035C31.6688 31.0329 31.5768 31.2524 31.4146 31.4146C31.2524 31.5768 31.0329 31.6688 30.8035 31.6708C30.5741 31.6728 30.353 31.5846 30.188 31.4253ZM16.5747 17.812C16.4912 17.7313 16.4245 17.6347 16.3787 17.528C16.3328 17.4212 16.3087 17.3064 16.3077 17.1902C16.3066 17.074 16.3288 16.9588 16.3728 16.8513C16.4168 16.7438 16.4817 16.6461 16.5639 16.5639C16.6461 16.4817 16.7438 16.4168 16.8513 16.3728C16.9588 16.3288 17.074 16.3066 17.1902 16.3077C17.3064 16.3087 17.4212 16.3328 17.528 16.3787C17.6347 16.4245 17.7313 16.4912 17.812 16.5747C17.9714 16.7398 18.0596 16.9608 18.0576 17.1902C18.0556 17.4196 17.9636 17.6391 17.8013 17.8013C17.6391 17.9636 17.4196 18.0556 17.1902 18.0576C16.9608 18.0596 16.7398 17.9714 16.5747 17.812V17.812Z" fill="black"/>
</svg>
