<svg width="42" height="42" viewBox="0 0 42 42" fill="none" xmlns="http://www.w3.org/2000/svg">
<path d="M21.2648 15C19.5414 15.0002 17.8335 15.741 18.013 17.2211L18.453 20.4384C18.5305 21.0047 18.9128 21.9098 19.4844 21.9098H19.5251L19.993 27.5264C20.0133 27.769 20.1893 27.9664 20.433 27.9664H22.193C22.4368 27.9664 22.6128 27.769 22.633 27.5264L23.101 21.9098H23.1417C23.713 21.9098 24.0956 21.0045 24.173 20.4384L24.613 17.2211C24.7281 15.7396 22.9885 14.9996 21.2648 15V15Z" fill="#E11F30"/>
<path d="M21.0053 21.1998L20.9947 21.2275C20.9982 21.2191 21.0007 21.2105 21.0042 21.2022L21.0053 21.1998V21.1998ZM17.4813 25.1925C14.3736 25.6317 12.2 26.6822 12.2 28.2285C12.2 30.3115 15.8318 32 21 32C26.1682 32 29.8 30.3115 29.8 28.2285C29.8 26.6822 27.6266 25.6317 24.5191 25.1925L24.0886 25.9256C26.4307 26.2505 28.04 26.9334 28.04 27.7258C28.04 28.8368 24.8881 29.7373 21 29.7373C17.1119 29.7373 13.96 28.8368 13.96 27.7258C13.9598 26.936 15.5585 26.2538 17.9079 25.9276C17.766 25.6825 17.6232 25.4378 17.4811 25.1925H17.4813Z" fill="#E11F30"/>
<path d="M21 14.62C22.2758 14.62 23.31 13.5858 23.31 12.31C23.31 11.0342 22.2758 10 21 10C19.7242 10 18.69 11.0342 18.69 12.31C18.69 13.5858 19.7242 14.62 21 14.62Z" fill="#E11F30"/>
</svg>
