<svg width="53" height="53" viewBox="0 0 53 53" fill="none" xmlns="http://www.w3.org/2000/svg">
<rect x="10.1875" y="10.1875" width="32.625" height="32.625" rx="16.3125" fill="white"/>
<g clip-path="url(#clip0_273_7887)">
<g clip-path="url(#clip1_273_7887)">
<path d="M28.7426 24.4117C28.5266 24.0157 28.2296 23.7142 27.8516 23.5072C27.4736 23.3002 27.0326 23.1967 26.5286 23.1967C25.9706 23.1967 25.4756 23.3227 25.0436 23.5747C24.6116 23.8267 24.2741 24.1867 24.0311 24.6547C23.7881 25.1227 23.6666 25.6627 23.6666 26.2747C23.6666 26.9047 23.7881 27.4537 24.0311 27.9217C24.2831 28.3897 24.6296 28.7497 25.0706 29.0017C25.5116 29.2537 26.0246 29.3797 26.6096 29.3797C27.3296 29.3797 27.9191 29.1907 28.3781 28.8127C28.8371 28.4257 29.1386 27.8902 29.2826 27.2062H26.0426V25.7617H31.1456V27.4087C31.0196 28.0657 30.7496 28.6732 30.3356 29.2312C29.9216 29.7892 29.3861 30.2392 28.7291 30.5812C28.0811 30.9142 27.3521 31.0807 26.5421 31.0807C25.6331 31.0807 24.8096 30.8782 24.0716 30.4732C23.3426 30.0592 22.7666 29.4877 22.3436 28.7587C21.9296 28.0297 21.7226 27.2017 21.7226 26.2747C21.7226 25.3477 21.9296 24.5197 22.3436 23.7907C22.7666 23.0527 23.3426 22.4812 24.0716 22.0762C24.8096 21.6622 25.6286 21.4552 26.5286 21.4552C27.5906 21.4552 28.5131 21.7162 29.2961 22.2382C30.0791 22.7512 30.6191 23.4757 30.9161 24.4117H28.7426Z" fill="black"/>
</g>
</g>
<rect x="10.1875" y="10.1875" width="32.625" height="32.625" rx="16.3125" stroke="#0F4068" stroke-width="0.375"/>
<defs>
<clipPath id="clip0_273_7887">
<rect width="15" height="15" fill="white" transform="matrix(-1 0 0 1 34.0002 19)"/>
</clipPath>
<clipPath id="clip1_273_7887">
<rect width="12.375" height="16.5" fill="white" transform="translate(20.5002 18.25)"/>
</clipPath>
</defs>
</svg>
