<svg width="40" height="40" viewBox="0 0 40 40" fill="none" xmlns="http://www.w3.org/2000/svg">
<path d="M20 23.375C20.8951 23.375 21.7536 23.0194 22.3865 22.3865C23.0194 21.7536 23.375 20.8951 23.375 20C23.375 19.1049 23.0194 18.2464 22.3865 17.6135C21.7536 16.9806 20.8951 16.625 20 16.625C19.1049 16.625 18.2464 16.9806 17.6135 17.6135C16.9806 18.2464 16.625 19.1049 16.625 20C16.625 20.8951 16.9806 21.7536 17.6135 22.3865C18.2464 23.0194 19.1049 23.375 20 23.375V23.375ZM20.5625 11.5625C20.5625 11.4133 20.5032 11.2702 20.3977 11.1648C20.2923 11.0593 20.1492 11 20 11C19.8508 11 19.7077 11.0593 19.6023 11.1648C19.4968 11.2702 19.4375 11.4133 19.4375 11.5625V13.2725C17.847 13.4055 16.355 14.0978 15.2264 15.2264C14.0978 16.355 13.4055 17.847 13.2725 19.4375H11.5625C11.4133 19.4375 11.2702 19.4968 11.1648 19.6023C11.0593 19.7077 11 19.8508 11 20C11 20.1492 11.0593 20.2923 11.1648 20.3977C11.2702 20.5032 11.4133 20.5625 11.5625 20.5625H13.2725C13.4055 22.153 14.0978 23.645 15.2264 24.7736C16.355 25.9022 17.847 26.5945 19.4375 26.7275V28.4375C19.4375 28.5867 19.4968 28.7298 19.6023 28.8352C19.7077 28.9407 19.8508 29 20 29C20.1492 29 20.2923 28.9407 20.3977 28.8352C20.5032 28.7298 20.5625 28.5867 20.5625 28.4375V26.7275C22.153 26.5943 23.6448 25.9019 24.7734 24.7734C25.9019 23.6448 26.5943 22.153 26.7275 20.5625H28.4375C28.5867 20.5625 28.7298 20.5032 28.8352 20.3977C28.9407 20.2923 29 20.1492 29 20C29 19.8508 28.9407 19.7077 28.8352 19.6023C28.7298 19.4968 28.5867 19.4375 28.4375 19.4375H26.7275C26.5945 17.847 25.9022 16.355 24.7736 15.2264C23.645 14.0978 22.153 13.4055 20.5625 13.2725V11.5625ZM20 25.625C18.5082 25.625 17.0774 25.0324 16.0225 23.9775C14.9676 22.9226 14.375 21.4918 14.375 20C14.375 18.5082 14.9676 17.0774 16.0225 16.0225C17.0774 14.9676 18.5082 14.375 20 14.375C21.4918 14.375 22.9226 14.9676 23.9775 16.0225C25.0324 17.0774 25.625 18.5082 25.625 20C25.625 21.4918 25.0324 22.9226 23.9775 23.9775C22.9226 25.0324 21.4918 25.625 20 25.625Z" fill="#0F4068"/>
</svg>
