<svg width="44" height="44" viewBox="0 0 44 44" fill="none" xmlns="http://www.w3.org/2000/svg">
<g clip-path="url(#clip0_273_7992)">
<path d="M13.12 27.6C12.2925 27.6 11.4989 27.2713 10.9138 26.6861C10.3287 26.101 10 25.3075 10 24.48V18.72C10 17.8925 10.3287 17.0989 10.9138 16.5138C11.4989 15.9287 12.2925 15.6 13.12 15.6H29.136C29.9635 15.6 30.7571 15.9287 31.3422 16.5138C31.9273 17.0989 32.256 17.8925 32.256 18.72V24.48C32.256 25.3075 31.9273 26.101 31.3422 26.6861C30.7571 27.2713 29.9635 27.6 29.136 27.6H13.12ZM11.108 18.72V24.48C11.108 25.59 12.008 26.49 13.118 26.49H29.136C29.6684 26.4889 30.1786 26.2767 30.5547 25.8998C30.9308 25.523 31.142 25.0124 31.142 24.48V18.72C31.1415 18.1872 30.9297 17.6764 30.5531 17.2996C30.1764 16.9228 29.6657 16.7108 29.133 16.71H13.118C12.008 16.71 11.108 17.61 11.107 18.72H11.108ZM32.657 19.71C33.446 19.99 34.001 20.73 34.001 21.599C34.001 22.468 33.446 23.208 32.671 23.484L32.657 23.488V19.71Z" fill="#313634"/>
<path d="M13.0103 24.9006C13.209 24.9661 13.4219 24.9998 13.637 24.9998H27.3655C27.798 24.9977 28.212 24.8602 28.5179 24.6171C28.8239 24.3741 28.997 24.045 29 23.7011V19.3014C29 18.9565 28.8279 18.6257 28.5214 18.3817C28.215 18.1377 27.7992 18.0003 27.3655 17.9998H13.637C13.4219 17.9998 13.209 18.0335 13.0103 18.0989C12.8116 18.1644 12.6311 18.2604 12.479 18.3813C12.327 18.5023 12.2064 18.6459 12.1243 18.804C12.0421 18.962 11.9998 19.1314 12 19.3024V23.6971C11.9998 23.8681 12.0421 24.0375 12.1243 24.1955C12.2064 24.3536 12.327 24.4972 12.479 24.6182C12.6311 24.7391 12.8116 24.8351 13.0103 24.9006Z" fill="url(#paint0_linear_273_7992)"/>
<path d="M13.0103 24.9006C13.209 24.9661 13.4219 24.9998 13.637 24.9998H27.3655C27.798 24.9977 28.212 24.8602 28.5179 24.6171C28.8239 24.3741 28.997 24.045 29 23.7011V19.3014C29 18.9565 28.8279 18.6257 28.5214 18.3817C28.215 18.1377 27.7992 18.0003 27.3655 17.9998H13.637C13.4219 17.9998 13.209 18.0335 13.0103 18.0989C12.8116 18.1644 12.6311 18.2604 12.479 18.3813C12.327 18.5023 12.2064 18.6459 12.1243 18.804C12.0421 18.962 11.9998 19.1314 12 19.3024V23.6971C11.9998 23.8681 12.0421 24.0375 12.1243 24.1955C12.2064 24.3536 12.327 24.4972 12.479 24.6182C12.6311 24.7391 12.8116 24.8351 13.0103 24.9006Z" fill="url(#paint1_linear_273_7992)"/>
</g>
<defs>
<linearGradient id="paint0_linear_273_7992" x1="21.5" y1="19.9998" x2="17.5006" y2="19.9498" gradientUnits="userSpaceOnUse">
<stop stop-color="#313634" stop-opacity="0.08"/>
<stop offset="1" stop-color="#313634"/>
</linearGradient>
<linearGradient id="paint1_linear_273_7992" x1="26.5" y1="19.9998" x2="17.5014" y2="19.8873" gradientUnits="userSpaceOnUse">
<stop stop-color="#313634" stop-opacity="0"/>
<stop offset="0.317708" stop-color="#313634"/>
</linearGradient>
<clipPath id="clip0_273_7992">
<rect width="24" height="24" fill="white" transform="translate(10 10)"/>
</clipPath>
</defs>
</svg>
