<svg width="48" height="33" viewBox="0 0 48 33" fill="none" xmlns="http://www.w3.org/2000/svg">
<path d="M15.4684 10C15.2574 10.0006 15.0513 10.0631 14.8754 10.1797C14.6996 10.2963 14.5618 10.4619 14.4792 10.656C11.8777 10.8047 9.99191 11.0548 10 11.2502C10.0076 11.4442 11.8794 11.5294 14.4599 11.4529C14.5495 11.6943 14.7219 11.8953 14.9465 12.0205H14.5276V12.7882H14.0152C13.9831 12.7882 13.9512 12.7945 13.9215 12.8068C13.8918 12.8191 13.8648 12.8371 13.842 12.8598C13.8192 12.8825 13.8012 12.9095 13.7889 12.9392C13.7766 12.969 13.7702 13.0008 13.7702 13.033V13.5801C13.7702 13.7153 13.8797 13.8248 14.0149 13.8248H17.4634C18.3323 14.0292 18.4294 14.3408 19.0801 14.9112C18.9737 15.5028 18.8169 16.1488 18.6943 16.7071V21.4596C18.6943 21.615 18.756 21.764 18.8659 21.8739C18.9758 21.9837 19.1248 22.0455 19.2802 22.0455C19.4356 22.0455 19.5846 21.9837 19.6945 21.8739C19.8044 21.764 19.8661 21.615 19.8661 21.4596V19.1616C19.8527 17.2296 20.1646 16.4484 21.2395 14.9529L21.5097 14.8275C21.5097 15.9884 22.3122 16.0581 23.4439 16.3171H22.5939C22.3351 16.3171 22.1251 16.5271 22.1251 16.7861V19.5861C22.1251 19.8448 22.3351 20.0548 22.5939 20.0548H25.4062C25.6649 20.0548 25.8749 19.8448 25.8749 19.5861V16.7861C25.8749 16.5271 25.6649 16.3174 25.4062 16.3174H24.5569C25.6884 16.0575 26.4903 15.9881 26.4903 14.8275L26.7605 14.9529C28.1205 16.3602 28.1339 17.3181 28.1339 19.1613V21.4593C28.1339 21.6147 28.1957 21.7637 28.3056 21.8736C28.4154 21.9835 28.5645 22.0452 28.7198 22.0452C28.8752 22.0452 29.0243 21.9835 29.1341 21.8736C29.244 21.7637 29.3057 21.6147 29.3057 21.4593V16.7071C29.1621 16.0936 29.0084 15.4508 28.8633 14.8138C29.4791 14.2104 29.7316 14.0746 30.531 13.8248H33.9851C34.05 13.8248 34.1123 13.799 34.1581 13.7531C34.204 13.7072 34.2298 13.645 34.2298 13.5801V13.033C34.2298 12.9681 34.204 12.9058 34.1581 12.8599C34.1123 12.814 34.05 12.7882 33.9851 12.7882H33.4724V12.0205H33.0535C33.2782 11.8954 33.4508 11.6941 33.5402 11.4529C36.1207 11.5294 37.9925 11.4442 38 11.2502C38.0081 11.0548 36.1223 10.805 33.5209 10.656C33.4411 10.4688 33.31 10.308 33.1427 10.1921C32.9754 10.0763 32.7788 10.0101 32.5755 10.0013C32.3722 9.99243 32.1705 10.0413 31.9938 10.1422C31.8171 10.2431 31.6725 10.3919 31.5768 10.5715C28.9709 10.4922 27.068 10.5765 27.0571 10.772C27.0489 10.966 28.9093 11.2144 31.4886 11.3633C31.5265 11.5016 31.5915 11.6309 31.6799 11.7437C31.7683 11.8566 31.8784 11.9507 32.0035 12.0205H31.5847V12.7882C28.9431 12.7821 26.8986 11.4546 24 11.4C21.1992 11.4594 18.8536 12.7882 16.4154 12.7882V12.0205H15.9965C16.1217 11.9507 16.2317 11.8566 16.3201 11.7437C16.4085 11.6309 16.4736 11.5016 16.5114 11.3633C19.0908 11.2144 20.9511 10.9657 20.943 10.772C20.9321 10.5765 19.0292 10.492 16.4232 10.5715C16.331 10.3985 16.1934 10.2539 16.0252 10.1533C15.8569 10.0526 15.6645 9.99973 15.4684 10.0003V10ZM24 17.0036C24.6572 17.0036 25.1973 17.5438 25.1973 18.2009C25.1973 18.8581 24.6572 19.3985 24 19.3985C23.3429 19.3985 22.8022 18.8581 22.8022 18.2009C22.8022 17.5438 23.3426 17.0036 24 17.0036ZM24 17.7064C23.7228 17.7064 23.5053 17.9237 23.5053 18.2009C23.5053 18.4781 23.7228 18.6954 24 18.6954C24.2772 18.6954 24.4942 18.4781 24.4942 18.2009C24.4942 17.9237 24.2772 17.7064 24 17.7064Z" fill="#313634"/>
</svg>
