<svg width="36" height="38" viewBox="0 0 36 38" fill="none" xmlns="http://www.w3.org/2000/svg">
<path d="M12.4319 15.2749V16.6518H12.1099C11.5238 16.6518 10.9617 16.8847 10.5473 17.2991C10.1328 17.7136 9.9 18.2757 9.9 18.8618V25.6136C9.9 26.1997 10.1328 26.7619 10.5473 27.1763C10.9617 27.5907 11.5238 27.8236 12.1099 27.8236H23.0817C23.6678 27.8236 24.2299 27.5907 24.6444 27.1763C25.0588 26.7619 25.2916 26.1997 25.2916 25.6136V18.8618C25.2916 18.2757 25.0588 17.7136 24.6444 17.2991C24.2299 16.8847 23.6678 16.6518 23.0817 16.6518H22.7597V15.2749C22.7597 12.3523 20.6087 9.9 17.5958 9.9C14.583 9.9 12.4319 12.3523 12.4319 15.2749ZM13.8979 15.2749C13.8979 13.0708 15.481 11.366 17.5958 11.366C19.7107 11.366 21.2937 13.0708 21.2937 15.2749V16.6518H13.8979V15.2749ZM11.366 18.8618C11.366 18.6645 11.4444 18.4752 11.5839 18.3357C11.7234 18.1962 11.9126 18.1178 12.1099 18.1178H23.0817C23.279 18.1178 23.4682 18.1962 23.6078 18.3357C23.7473 18.4752 23.8257 18.6645 23.8257 18.8618V25.6136C23.8257 25.8109 23.7473 26.0002 23.6078 26.1397C23.4682 26.2792 23.279 26.3576 23.0817 26.3576H12.1099C11.9126 26.3576 11.7234 26.2792 11.5839 26.1397C11.4444 26.0002 11.366 25.8109 11.366 25.6136V18.8618Z" fill="#0F4068" stroke="#0F4068" stroke-width="0.2"/>
</svg>
