<svg width="52" height="52" viewBox="0 0 52 52" fill="none" xmlns="http://www.w3.org/2000/svg">
<path d="M26 12C18.2688 12 12 18.2688 12 26C12 33.7312 18.2688 40 26 40C33.7312 40 40 33.7312 40 26C40 18.2688 33.7312 12 26 12ZM31.5156 30.3031L30.6219 31.5219C30.6024 31.5484 30.5779 31.5708 30.5498 31.5879C30.5217 31.6049 30.4904 31.6162 30.4579 31.6212C30.4254 31.6261 30.3922 31.6246 30.3603 31.6167C30.3284 31.6087 30.2983 31.5946 30.2719 31.575L25.1031 27.8062C25.0709 27.7831 25.0448 27.7526 25.0268 27.7173C25.0089 27.6819 24.9997 27.6428 25 27.6031V19C25 18.8625 25.1125 18.75 25.25 18.75H26.7531C26.8906 18.75 27.0031 18.8625 27.0031 19V26.7344L31.4594 29.9562C31.5719 30.0344 31.5969 30.1906 31.5156 30.3031Z" fill="#E11F30"/>
</svg>
