<svg width="40" height="40" viewBox="0 0 40 40" fill="none" xmlns="http://www.w3.org/2000/svg">
<path d="M23.3837 12.045C23.6181 12.2794 23.7497 12.5973 23.7497 12.9287C23.7497 13.2602 23.6181 13.5781 23.3837 13.8125L17.1962 20L23.3837 26.1875C23.6114 26.4233 23.7374 26.739 23.7346 27.0668C23.7317 27.3945 23.6003 27.708 23.3685 27.9398C23.1368 28.1715 22.8232 28.303 22.4955 28.3058C22.1678 28.3087 21.852 28.1827 21.6163 27.955L14.545 20.8837C14.3107 20.6493 14.179 20.3315 14.179 20C14.179 19.6685 14.3107 19.3507 14.545 19.1162L21.6163 12.045C21.8507 11.8107 22.1685 11.679 22.5 11.679C22.8315 11.679 23.1493 11.8107 23.3837 12.045V12.045Z" fill="#434243"/>
</svg>
