<svg width="44" height="44" viewBox="0 0 44 44" fill="none" xmlns="http://www.w3.org/2000/svg">
<g clip-path="url(#clip0_273_7861)">
<g clip-path="url(#clip1_273_7861)">
<path d="M22.9058 13.4118C22.6931 12.9014 22.1918 12.5702 21.6388 12.5702C21.0858 12.5702 20.5845 12.9014 20.3718 13.4118L14.052 28.482C13.7968 29.0897 14.0095 29.7885 14.5534 30.1562C15.0972 30.5238 15.8264 30.4509 16.2913 29.986L21.6388 24.6385L26.9863 29.986C27.4512 30.4509 28.1773 30.5208 28.7242 30.1562C29.2711 29.7916 29.4808 29.0897 29.2256 28.482L22.9058 13.4118V13.4118Z" fill="#E11F30"/>
</g>
</g>
<defs>
<clipPath id="clip0_273_7861">
<rect width="20" height="22" fill="white" transform="matrix(-1 0 0 1 32 11)"/>
</clipPath>
<clipPath id="clip1_273_7861">
<rect width="16.5" height="22" fill="white" transform="translate(14 12)"/>
</clipPath>
</defs>
</svg>
