<svg width="44" height="44" viewBox="0 0 44 44" fill="none" xmlns="http://www.w3.org/2000/svg">
<path d="M24.5 16C24.4994 15.4325 24.3781 14.8716 24.1441 14.3546C23.9101 13.8376 23.5688 13.3763 23.1428 13.0013C22.7168 12.6264 22.2159 12.3464 21.6733 12.1799C21.1308 12.0135 20.559 11.9643 19.996 12.0358C19.4331 12.1073 18.8917 12.2978 18.408 12.5946C17.9243 12.8914 17.5093 13.2877 17.1906 13.7573C16.8718 14.2268 16.6566 14.7588 16.5593 15.3179C16.4619 15.877 16.4847 16.4504 16.626 17M21 31.5C18.637 30.6165 16.666 27.5925 15.68 25.8215C15.254 25.0565 15.4785 24.1175 16.162 23.5705C16.53 23.2763 16.9936 23.128 17.464 23.1541C17.9345 23.1802 18.3788 23.3788 18.712 23.712L19.5 24.5V18.75C19.5 18.4185 19.6317 18.1006 19.8661 17.8661C20.1005 17.6317 20.4185 17.5 20.75 17.5C21.0815 17.5 21.3995 17.6317 21.6339 17.8661C21.8683 18.1006 22 18.4185 22 18.75V21.75C22 21.4185 22.1317 21.1006 22.3661 20.8661C22.6005 20.6317 22.9185 20.5 23.25 20.5C23.5815 20.5 23.8995 20.6317 24.1339 20.8661C24.3683 21.1006 24.5 21.4185 24.5 21.75V22.75C24.5 22.4185 24.6317 22.1006 24.8661 21.8661C25.1005 21.6317 25.4185 21.5 25.75 21.5C26.0815 21.5 26.3995 21.6317 26.6339 21.8661C26.8683 22.1006 27 22.4185 27 22.75V23.75C27 23.4185 27.1317 23.1006 27.3661 22.8661C27.6005 22.6317 27.9185 22.5 28.25 22.5C28.5815 22.5 28.8995 22.6317 29.1339 22.8661C29.3683 23.1006 29.5 23.4185 29.5 23.75V27.684C29.5 28.219 29.3675 28.748 29.059 29.1855C28.5475 29.91 27.6275 31.017 26.5 31.5C24.75 32.25 23.185 32.317 21 31.5ZM16.626 17C16.67 17.1715 16.7255 17.3385 16.791 17.5L16.626 17Z" stroke="#E11F30" stroke-width="1.5" stroke-linecap="round" stroke-linejoin="round"/>
</svg>
